<svg width="51" height="61" viewBox="0 0 51 61" fill="none" xmlns="http://www.w3.org/2000/svg">
<path d="M50.5829 30.225H49.166C49.0645 30.225 48.9755 30.1614 48.9375 30.0661L46.7647 24.1642C46.7647 24.1642 46.7647 24.1515 46.7647 24.1451C46.7647 24.126 46.7647 24.1133 46.7582 24.0943C46.7582 24.0879 46.7582 24.0816 46.7521 24.0816C46.7521 24.0689 46.7392 24.0561 46.7331 24.0434C46.7267 24.0307 46.7141 24.018 46.7076 24.0053C46.7012 23.9926 46.6822 23.9863 46.6696 23.9799C46.6567 23.9736 46.6441 23.9608 46.6312 23.9545C46.6187 23.9545 46.6122 23.9545 46.5996 23.9418C46.5806 23.9418 46.5616 23.9291 46.5361 23.9291C46.5297 23.9291 46.5232 23.9291 46.5107 23.9291C46.4978 23.9291 46.4787 23.9291 46.4597 23.9354L42.267 25.295C42.178 25.3268 42.089 25.295 42.0381 25.2188C42 25.1679 41.962 25.1234 41.9236 25.079C41.7396 24.8884 41.4981 24.7804 41.2441 24.7423C41.2756 24.1705 41.5236 23.6114 41.6187 23.0524C41.6631 22.8046 41.6822 22.5568 41.6696 22.3027C41.657 21.8008 41.3582 21.3053 41.2886 20.8034C41.2502 20.5239 41.225 20.2443 41.2312 19.9648C41.2312 19.9648 41.2312 19.9648 41.2312 19.9585L42.4955 18.0716V16.3055C42.4955 16.045 42.2795 15.829 42.0126 15.829H41.4027V9.12015C41.4027 6.66786 39.4078 4.67302 36.9555 4.67302H26.3778C26.3461 3.82169 26.003 2.98311 25.2724 2.50663C23.735 1.50285 24.0399 -0.263298 20.6855 0.048001C17.3311 -0.263298 17.6361 1.50285 16.0986 2.50663C15.368 2.98311 15.025 3.82169 14.9932 4.67302H4.44713C1.99486 4.67302 0 6.66786 0 9.12015V43.3502C0 51.3045 4.56783 54.0427 9.96158 56.1836C10.7748 56.5076 11.6134 56.819 12.452 57.13C14.8915 58.0324 17.42 58.9724 19.6309 60.3322C19.7008 60.3702 19.7707 60.4208 19.8406 60.4592L20.6982 60.9992L21.4479 60.5288L21.5495 60.4653C23.8112 59.0359 26.4159 58.0704 28.9381 57.1365C28.9635 57.13 28.9889 57.1175 29.008 57.111C29.5607 56.9076 30.1071 56.7045 30.6471 56.4946C30.9012 56.3996 31.149 56.3041 31.3967 56.2026C36.8095 54.0617 41.3901 51.3299 41.3901 43.3567V27.1056C41.5806 27.0484 41.7586 26.9468 41.9046 26.8007C42.1461 26.5593 42.2541 26.2543 42.2541 25.943C42.2541 25.8541 42.3111 25.7842 42.394 25.7588L45.8943 24.6216C45.9897 24.5898 46.0787 24.6787 46.0468 24.7741L44.0964 30.0598C44.0648 30.1551 43.9694 30.2186 43.8679 30.2186H42.451C42.324 30.2186 42.2096 30.3203 42.2096 30.4537C42.2096 31.2796 42.4385 32.08 42.883 32.7598C43.6709 34.0114 45.0303 34.7548 46.5107 34.7548C48.8865 34.7548 50.8118 32.8234 50.8118 30.4473C50.8118 30.3203 50.7038 30.2123 50.5703 30.2123L50.5829 30.225ZM26.0729 6.24223C26.1873 5.99446 26.2698 5.72763 26.3206 5.4481H36.9555C38.9887 5.4481 40.6406 7.09987 40.6406 9.13285V15.8417H39.9671C39.8082 15.8417 39.6557 15.9179 39.5668 16.0577L39.0584 16.8137C39.0078 16.8899 38.9823 16.9852 38.9823 17.0805V19.3613L32.9088 24.2912L30.3167 17.0233C30.0626 16.3055 28.9063 14.9713 26.5938 14.9713H23.6143C23.087 14.9713 22.6041 14.5393 22.6041 14.012V11.7503C23.1568 11.2675 23.6079 10.6322 23.8176 9.93334L24.275 8.38321C24.9611 7.64623 25.3614 7.41119 25.7298 6.89023C25.8188 6.76315 25.9077 6.61706 25.9967 6.44552C26.0284 6.38833 26.0538 6.33118 26.0856 6.26764L26.0729 6.24223ZM20.6855 22.9634C15.6793 20.3587 13.5066 15.5367 13.4367 15.3842C13.532 15.4922 16.537 19.0245 20.6855 20.7653C22.6613 21.5975 24.8912 22.0232 27.1847 21.4768L26.1555 24.5326C24.0463 24.3548 22.2293 23.7639 20.6855 22.9634ZM24.7578 29.8883L27.9534 35.7903C24.7133 35.4028 22.3627 34.6658 20.6792 33.8398C17.1341 32.1118 16.4925 29.9899 16.4671 29.8883C16.556 29.9454 18.4302 31.0445 20.6792 31.1462C22.0006 31.2097 23.4554 30.9302 24.7578 29.8819V29.8883ZM25.9014 4.74291C25.8696 5.45445 25.6218 6.19139 25.5392 6.42012C25.5202 6.47092 25.5138 6.49633 25.5138 6.49633C25.5138 6.47092 25.5138 6.44552 25.5138 6.42012C25.5011 5.40361 25.2216 4.88266 24.8468 4.53959C24.1733 3.92972 23.1759 3.89158 22.8011 2.61463C22.8011 2.61463 23.4173 3.15464 24.6435 3.15464C25.7044 3.15464 25.9395 3.92972 25.9077 4.73656L25.9014 4.74291ZM20.6855 0.505419C21.0603 0.473656 22.6486 0.384713 23.0997 1.01366C24.2623 2.6464 24.9167 2.74804 24.9167 2.74804C22.3818 2.74804 22.4263 0.575303 20.6855 0.511773C20.6601 0.511773 20.6347 0.511773 20.6093 0.511773C20.6093 0.511773 20.6411 0.511773 20.6855 0.511773V0.505419ZM0.762367 43.3696V9.13285C0.762367 7.09987 2.41416 5.4481 4.44713 5.4481H15.044C15.0948 5.72763 15.1774 5.99446 15.2918 6.24223C15.3172 6.30574 15.3489 6.36293 15.3807 6.42012C15.4697 6.598 15.5586 6.73775 15.6476 6.86483C16.016 7.38575 16.4163 7.62718 17.1024 8.35777L17.5598 9.90793C17.7694 10.6068 18.2205 11.2421 18.7669 11.7249V13.9866C18.7669 14.5202 18.2904 14.9459 17.7631 14.9459H13.6527C11.823 14.9459 10.4762 16.0513 10.3682 17.4935L9.97428 27.5059L6.18785 42.8486V45.9299C6.18785 46.3109 6.61351 46.5395 6.93753 46.3235L8.62109 45.1865C8.91967 44.9895 9.0785 44.64 9.04037 44.2841L8.5512 40.0594L12.8522 29.8311C12.9666 29.5579 13.0301 29.272 13.0428 28.9734L13.2969 20.4857L16.1367 29.4181C16.1749 29.6214 13.3986 34.5195 12.8268 35.4788C12.7569 35.5933 12.7125 35.7138 12.6998 35.8473L10.0823 55.4021C5.01254 53.3693 0.775071 50.72 0.775071 43.3567L0.762367 43.3696ZM20.6982 60.1097L20.2535 59.8302C19.9232 59.6204 19.5801 59.4173 19.237 59.2268C15.2664 47.9943 13.0746 37.8805 12.9475 37.2832C13.1381 37.8931 16.448 48.4582 20.6855 58.7184C20.838 59.0869 20.9968 59.4618 21.1493 59.8302L20.6982 60.1097ZM28.684 56.425C28.5887 56.4631 28.4998 56.4946 28.4045 56.5266C25.4122 53.6297 22.8265 50.5736 20.6855 47.7403C15.9842 41.5017 13.4049 36.2983 13.2652 36.0127C13.4367 36.2793 16.5306 41.0698 20.6855 45.3006C23.4173 48.0772 26.7844 50.65 29.8847 51.495L30.5327 55.7197C29.9228 55.9547 29.3002 56.19 28.6776 56.4186L28.684 56.425ZM40.6341 43.3696C40.6341 50.7516 36.3775 53.3944 31.3014 55.4276L28.6776 35.8602C28.6649 35.7332 28.6205 35.6058 28.5506 35.4917C27.9788 34.5324 25.2025 29.6405 25.2406 29.4308L28.0804 20.4985L31.365 28.2809C31.6318 28.9226 32.4704 29.0814 32.9469 28.5795L40.4243 21.1655L40.8437 20.5429C40.8311 20.6382 40.8247 20.7272 40.8121 20.8224C40.7421 21.318 40.4436 21.8199 40.4307 22.3218C40.3801 23.1604 40.7866 23.9481 40.8566 24.7613C40.6087 24.7995 40.3801 24.9138 40.1957 25.098C39.9607 25.3331 39.8398 25.6444 39.8463 25.9557C39.8463 26.0383 39.7892 26.1146 39.7067 26.14L35.5136 27.4995C35.5136 27.4995 35.5136 27.4995 35.5007 27.4995C35.4881 27.4995 35.4755 27.5122 35.4626 27.5249C35.4501 27.5313 35.431 27.5376 35.4246 27.5503C35.4181 27.5567 35.412 27.563 35.4056 27.5694C35.3927 27.5884 35.3801 27.6011 35.3675 27.6202C35.3546 27.6456 35.3482 27.6774 35.3421 27.7028L33.1565 33.6175C33.1184 33.7128 33.0295 33.7763 32.9278 33.7763H31.5111C31.384 33.7763 31.2697 33.878 31.2697 34.0049C31.2697 34.8309 31.4984 35.6313 31.9431 36.3112C32.7372 37.5627 34.0903 38.3125 35.5706 38.3125C37.9468 38.3125 39.8782 36.3812 39.8717 34.0049C39.8717 33.878 39.7573 33.7763 39.6303 33.7763H38.2134C38.1119 33.7763 38.0229 33.7128 37.9849 33.6175L35.9136 27.9951C35.8885 27.9315 35.9265 27.8616 35.99 27.8426L39.8398 26.591C39.9227 26.5593 40.0178 26.591 40.0687 26.6673C40.1003 26.7181 40.1387 26.7626 40.1831 26.807C40.3102 26.9341 40.4626 27.023 40.6212 27.0865V43.3696H40.6341ZM37.629 34.5704C37.6419 34.4434 37.7434 34.3418 37.8704 34.3418H38.6583C38.7979 34.3418 38.9059 34.4689 38.8998 34.6084C38.7663 36.3367 37.324 37.7026 35.5581 37.7026C35.3421 37.7026 35.1261 37.6836 34.9227 37.6452C36.403 37.3657 37.5339 36.1142 37.6354 34.5768L37.629 34.5704ZM34.5542 33.6619C34.5097 33.7382 34.4272 33.7763 34.3446 33.7763H33.9633C33.7982 33.7763 33.6775 33.6111 33.7347 33.4523L35.412 28.8972C35.4246 29.5769 35.3736 30.2567 35.304 30.9302C35.2021 31.9022 35.0561 32.8043 34.5477 33.6556L34.5542 33.6619ZM37.2034 33.7827H36.8224C36.7395 33.7827 36.657 33.7382 36.6125 33.6683C36.3901 33.2871 36.2441 32.906 36.1296 32.5311C35.8566 31.4829 35.7995 30.4219 35.755 29.3546C35.755 29.2085 35.755 29.0624 35.755 28.9162L37.432 33.465C37.4955 33.6175 37.3749 33.789 37.2099 33.789L37.2034 33.7827ZM46.6947 25.3522L48.372 29.901C48.4291 30.0534 48.3085 30.225 48.1435 30.225H47.7621C47.6796 30.225 47.5971 30.1805 47.5526 30.1106C47.3237 29.7294 47.1841 29.3482 47.0697 28.9734C46.7966 27.9252 46.7392 26.8642 46.6947 25.7969C46.6947 25.6508 46.6947 25.5047 46.6947 25.3522ZM45.2844 30.225H44.9033C44.7383 30.225 44.6238 30.0598 44.6748 29.901L46.3517 25.3458C46.3646 26.0193 46.3137 26.699 46.2437 27.3788C46.1422 28.3572 45.9962 29.253 45.4878 30.1042C45.4433 30.1805 45.3608 30.2186 45.2782 30.2186L45.2844 30.225ZM46.5677 34.1194C46.3517 34.1194 46.1422 34.0939 45.9327 34.0559C47.4065 33.7763 48.5371 32.5248 48.6451 30.9937C48.658 30.8666 48.7534 30.765 48.8865 30.765H49.6744C49.8143 30.765 49.9223 30.8857 49.9159 31.0318C49.7824 32.7598 48.3405 34.1258 46.5742 34.1258L46.5677 34.1194Z" fill="#707A8A"/>
</svg>
