<svg width="217" height="48" viewBox="0 0 217 48" fill="none" xmlns="http://www.w3.org/2000/svg">
<path d="M213.165 45.0939C212.515 45.0939 211.935 44.9421 211.426 44.6385C210.918 44.335 210.518 43.9309 210.227 43.4264C209.936 42.9218 209.791 42.366 209.791 41.7589C209.791 41.3099 209.874 40.8845 210.041 40.4826C210.208 40.0807 210.443 39.7258 210.747 39.4179C211.05 39.1058 211.407 38.8621 211.818 38.6868C212.228 38.5115 212.677 38.4238 213.165 38.4238C213.819 38.4238 214.4 38.5756 214.909 38.8792C215.418 39.1828 215.818 39.5868 216.108 40.0913C216.399 40.5959 216.544 41.1517 216.544 41.7589C216.544 42.2078 216.461 42.6332 216.294 43.0352C216.128 43.4371 215.892 43.792 215.589 44.0998C215.285 44.4077 214.928 44.6514 214.518 44.8309C214.107 45.0062 213.656 45.0939 213.165 45.0939ZM213.165 44.0293C213.588 44.0293 213.962 43.9373 214.287 43.7535C214.616 43.5653 214.875 43.3024 215.063 42.9646C215.251 42.6226 215.345 42.2206 215.345 41.7589C215.345 41.2928 215.251 40.8909 215.063 40.5531C214.879 40.2111 214.623 39.9481 214.293 39.7643C213.964 39.5804 213.588 39.4885 213.165 39.4885C212.741 39.4885 212.365 39.5804 212.036 39.7643C211.711 39.9481 211.454 40.2111 211.266 40.5531C211.082 40.8909 210.99 41.2928 210.99 41.7589C210.99 42.2206 211.082 42.6226 211.266 42.9646C211.454 43.3024 211.713 43.5653 212.042 43.7535C212.371 43.9373 212.746 44.0293 213.165 44.0293ZM213.844 37.3977L215.005 35.1914H216.166L214.89 37.3977H213.844ZM211.388 37.3977L212.549 35.1914H213.71L212.433 37.3977H211.388Z" fill="white"/>
<path d="M206.156 45.0872C205.66 45.0872 205.19 45.0145 204.745 44.8691C204.305 44.7195 203.937 44.5206 203.642 44.2726L204.13 43.3812C204.408 43.6121 204.724 43.7938 205.079 43.9263C205.438 44.0546 205.797 44.1187 206.156 44.1187C206.601 44.1187 206.947 44.0396 207.195 43.8814C207.443 43.719 207.567 43.4902 207.567 43.1952C207.567 42.9215 207.461 42.7184 207.247 42.5859C207.033 42.4533 206.635 42.3165 206.054 42.1754C205.284 42.0001 204.724 41.765 204.373 41.4699C204.027 41.1749 203.854 40.7687 203.854 40.2514C203.854 39.8837 203.957 39.5587 204.162 39.2765C204.367 38.99 204.647 38.7656 205.002 38.6031C205.361 38.4406 205.774 38.3594 206.24 38.3594C206.702 38.3594 207.131 38.4256 207.529 38.5582C207.931 38.6865 208.279 38.8746 208.574 39.1226L208.119 40.0205C207.969 39.8794 207.792 39.7575 207.587 39.6549C207.386 39.5523 207.17 39.4732 206.939 39.4176C206.708 39.3577 206.477 39.3278 206.246 39.3278C205.866 39.3278 205.554 39.4048 205.31 39.5587C205.07 39.7126 204.951 39.9264 204.951 40.2001C204.951 40.4865 205.066 40.696 205.297 40.8286C205.532 40.9611 205.921 41.0915 206.464 41.2198C207.251 41.3951 207.815 41.6303 208.157 41.9253C208.5 42.216 208.671 42.618 208.671 43.131C208.671 43.5287 208.566 43.875 208.356 44.17C208.147 44.4608 207.854 44.6874 207.478 44.8499C207.101 45.0081 206.661 45.0872 206.156 45.0872Z" fill="white"/>
<path d="M199.699 45.0959C199.032 45.0959 198.444 44.9569 197.935 44.679C197.426 44.4011 197.029 44.0141 196.742 43.5181C196.456 43.0179 196.313 42.4364 196.313 41.7736C196.313 41.2948 196.394 40.8501 196.556 40.4396C196.723 40.0292 196.954 39.6743 197.249 39.375C197.548 39.0757 197.897 38.8427 198.294 38.6759C198.696 38.5092 199.132 38.4258 199.603 38.4258C200.112 38.4258 200.565 38.5156 200.962 38.6952C201.364 38.8747 201.696 39.127 201.957 39.4519C202.222 39.7726 202.412 40.151 202.527 40.5871C202.643 41.019 202.666 41.4893 202.598 41.9981H197.48C197.467 42.4171 197.553 42.7848 197.736 43.1012C197.92 43.4134 198.185 43.6571 198.532 43.8324C198.882 44.0077 199.297 44.0953 199.776 44.0953C200.127 44.0953 200.469 44.0398 200.802 43.9286C201.136 43.8174 201.431 43.6528 201.687 43.4348L202.187 44.3134C201.982 44.4802 201.738 44.6234 201.456 44.7431C201.178 44.8586 200.888 44.9462 200.584 45.0061C200.28 45.0659 199.985 45.0959 199.699 45.0959ZM197.544 41.081H201.418C201.401 40.5508 201.236 40.1382 200.924 39.8432C200.612 39.5439 200.165 39.3942 199.584 39.3942C199.019 39.3942 198.553 39.5439 198.185 39.8432C197.818 40.1382 197.604 40.5508 197.544 41.081Z" fill="white"/>
<path d="M191.86 44.9021V38.6168H193.04V39.5275C193.292 39.117 193.592 38.8306 193.938 38.6681C194.289 38.5013 194.661 38.418 195.054 38.418C195.178 38.418 195.298 38.4244 195.413 38.4372C195.529 38.45 195.642 38.4671 195.753 38.4885L195.58 39.7135C195.46 39.6793 195.338 39.6536 195.214 39.6365C195.09 39.6152 194.968 39.6045 194.849 39.6045C194.323 39.6045 193.889 39.7691 193.547 40.0983C193.209 40.4233 193.04 40.8594 193.04 41.4067V44.9021H191.86Z" fill="white"/>
<path d="M187.436 45.0959C186.769 45.0959 186.181 44.9569 185.672 44.679C185.163 44.4011 184.765 44.0141 184.479 43.5181C184.192 43.0179 184.049 42.4364 184.049 41.7736C184.049 41.2948 184.13 40.8501 184.293 40.4396C184.46 40.0292 184.691 39.6743 184.986 39.375C185.285 39.0757 185.633 38.8427 186.031 38.6759C186.433 38.5092 186.869 38.4258 187.339 38.4258C187.848 38.4258 188.301 38.5156 188.699 38.6952C189.101 38.8747 189.432 39.127 189.693 39.4519C189.958 39.7726 190.148 40.151 190.264 40.5871C190.379 41.019 190.403 41.4893 190.334 41.9981H185.216C185.204 42.4171 185.289 42.7848 185.473 43.1012C185.657 43.4134 185.922 43.6571 186.268 43.8324C186.619 44.0077 187.034 44.0953 187.512 44.0953C187.863 44.0953 188.205 44.0398 188.539 43.9286C188.872 43.8174 189.167 43.6528 189.424 43.4348L189.924 44.3134C189.719 44.4802 189.475 44.6234 189.193 44.7431C188.915 44.8586 188.624 44.9462 188.321 45.0061C188.017 45.0659 187.722 45.0959 187.436 45.0959ZM185.281 41.081H189.154C189.137 40.5508 188.973 40.1382 188.661 39.8432C188.348 39.5439 187.902 39.3942 187.32 39.3942C186.756 39.3942 186.29 39.5439 185.922 39.8432C185.554 40.1382 185.34 40.5508 185.281 41.081Z" fill="white"/>
<path d="M176.426 44.9008V35.9219H177.631V40.7705L181.563 35.9219H183.038L179.767 39.9624L183.557 44.9008H181.999L178.978 40.8924L177.631 42.5022V44.9008H176.426Z" fill="white"/>
<path d="M166.816 47.7821C166.611 47.7821 166.408 47.7565 166.207 47.7052C166.006 47.6581 165.803 47.5726 165.598 47.4486L165.874 46.4289C166.006 46.5144 166.149 46.5785 166.303 46.6213C166.457 46.664 166.594 46.6854 166.714 46.6854C167.03 46.6854 167.276 46.6084 167.451 46.4545C167.627 46.3006 167.768 46.0654 167.875 45.749L168.125 45.0307L165.636 38.6172H166.932L168.792 43.6839L170.607 38.6172H171.858L169.106 45.903C168.918 46.3989 168.708 46.7816 168.478 47.051C168.251 47.3246 168.001 47.5149 167.727 47.6218C167.454 47.7287 167.15 47.7821 166.816 47.7821Z" fill="white"/>
<path d="M163.199 44.9035V35.668H164.38V44.9035H163.199Z" fill="white"/>
<path d="M157.973 45.0939C157.528 45.0939 157.141 45.0127 156.812 44.8502C156.483 44.6877 156.228 44.459 156.049 44.1639C155.869 43.8646 155.779 43.5119 155.779 43.1057C155.779 42.7722 155.865 42.4686 156.036 42.195C156.207 41.9171 156.476 41.6883 156.844 41.5087C157.212 41.3249 157.689 41.203 158.274 41.1432C158.86 41.079 159.568 41.0897 160.397 41.1752L160.429 42.0411C159.788 41.9555 159.243 41.9235 158.794 41.9449C158.345 41.962 157.981 42.0218 157.703 42.1244C157.426 42.2228 157.22 42.3553 157.088 42.5221C156.96 42.6845 156.895 42.8684 156.895 43.0736C156.895 43.4029 157.013 43.6615 157.248 43.8497C157.488 44.0335 157.815 44.1255 158.229 44.1255C158.584 44.1255 158.901 44.0613 159.179 43.9331C159.461 43.8005 159.683 43.6188 159.846 43.3879C160.012 43.1527 160.096 42.8812 160.096 42.5734V40.8161C160.096 40.5211 160.029 40.2645 159.897 40.0464C159.769 39.8284 159.578 39.6595 159.326 39.5398C159.074 39.4201 158.764 39.3602 158.396 39.3602C158.067 39.3602 157.74 39.4094 157.415 39.5077C157.09 39.6061 156.778 39.7664 156.478 39.9887L156.119 39.078C156.508 38.8129 156.91 38.6269 157.325 38.52C157.74 38.4131 158.137 38.3597 158.518 38.3597C159.095 38.3597 159.587 38.4516 159.993 38.6355C160.399 38.8151 160.709 39.0866 160.923 39.45C161.137 39.8134 161.244 40.2666 161.244 40.8097V44.9015H160.16V44.1319C159.942 44.444 159.64 44.6834 159.256 44.8502C158.871 45.0127 158.443 45.0939 157.973 45.0939ZM157.877 37.3977L159.07 35.1914H160.282L158.973 37.3977H157.877Z" fill="white"/>
<path d="M151.596 45.0959C151.173 45.0959 150.79 45.0317 150.448 44.9035C150.106 44.7795 149.809 44.6063 149.556 44.384C149.308 44.1616 149.103 43.9072 148.941 43.6207L149.114 43.3642V44.9035H148.03V35.668H149.204V40.0741L148.973 39.8111C149.251 39.4006 149.603 39.0671 150.031 38.8106C150.463 38.5541 150.98 38.4258 151.583 38.4258C152.212 38.4258 152.763 38.5754 153.238 38.8747C153.717 39.174 154.089 39.5759 154.354 40.0805C154.623 40.585 154.758 41.1451 154.758 41.7608C154.758 42.2312 154.681 42.6694 154.527 43.0756C154.373 43.4775 154.155 43.8303 153.873 44.1338C153.595 44.4374 153.263 44.6747 152.879 44.8457C152.494 45.0125 152.066 45.0959 151.596 45.0959ZM151.384 44.0312C151.808 44.0312 152.182 43.9393 152.507 43.7554C152.836 43.5673 153.092 43.3043 153.276 42.9666C153.464 42.6245 153.558 42.2226 153.558 41.7608C153.558 41.2948 153.464 40.8929 153.276 40.5551C153.092 40.213 152.836 39.9501 152.507 39.7662C152.182 39.5824 151.808 39.4904 151.384 39.4904C150.961 39.4904 150.585 39.5824 150.256 39.7662C149.931 39.9501 149.674 40.213 149.486 40.5551C149.298 40.8929 149.204 41.2948 149.204 41.7608C149.204 42.2226 149.298 42.6245 149.486 42.9666C149.674 43.3043 149.931 43.5673 150.256 43.7554C150.585 43.9393 150.961 44.0312 151.384 44.0312Z" fill="white"/>
<path d="M142.803 45.0936C142.359 45.0936 141.972 45.0123 141.643 44.8499C141.313 44.6874 141.059 44.4586 140.879 44.1636C140.7 43.8643 140.61 43.5116 140.61 43.1054C140.61 42.7719 140.695 42.4683 140.867 42.1947C141.038 41.9167 141.307 41.688 141.675 41.5084C142.042 41.3246 142.519 41.2027 143.105 41.1428C143.691 41.0787 144.398 41.0894 145.228 41.1749L145.26 42.0407C144.618 41.9552 144.073 41.9232 143.624 41.9445C143.175 41.9616 142.812 42.0215 142.534 42.1241C142.256 42.2225 142.051 42.355 141.918 42.5218C141.79 42.6842 141.726 42.8681 141.726 43.0733C141.726 43.4025 141.844 43.6612 142.079 43.8494C142.318 44.0332 142.645 44.1251 143.06 44.1251C143.415 44.1251 143.731 44.061 144.009 43.9327C144.291 43.8002 144.514 43.6185 144.676 43.3876C144.843 43.1524 144.926 42.8809 144.926 42.5731V40.8158C144.926 40.5207 144.86 40.2642 144.727 40.0461C144.599 39.8281 144.409 39.6592 144.157 39.5395C143.904 39.4197 143.594 39.3599 143.227 39.3599C142.897 39.3599 142.57 39.4091 142.245 39.5074C141.92 39.6057 141.608 39.7661 141.309 39.9884L140.95 39.0777C141.339 38.8126 141.741 38.6266 142.156 38.5197C142.57 38.4128 142.968 38.3594 143.349 38.3594C143.926 38.3594 144.417 38.4513 144.824 38.6352C145.23 38.8147 145.54 39.0862 145.754 39.4497C145.967 39.8131 146.074 40.2663 146.074 40.8093V44.9012H144.99V44.1316C144.772 44.4437 144.471 44.6831 144.086 44.8499C143.701 45.0123 143.274 45.0936 142.803 45.0936Z" fill="white"/>
<path d="M134.51 44.9025V44.0238L137.942 39.6754H134.568V38.6172H139.391V39.4958L136.011 43.8378H139.443V44.9025H134.51Z" fill="white"/>
<path d="M130.735 45.0872C130.239 45.0872 129.769 45.0145 129.324 44.8691C128.883 44.7195 128.516 44.5206 128.221 44.2726L128.708 43.3812C128.986 43.6121 129.302 43.7938 129.657 43.9263C130.016 44.0546 130.376 44.1187 130.735 44.1187C131.179 44.1187 131.526 44.0396 131.774 43.8814C132.022 43.719 132.146 43.4902 132.146 43.1952C132.146 42.9215 132.039 42.7184 131.825 42.5859C131.611 42.4533 131.214 42.3165 130.632 42.1754C129.863 42.0001 129.302 41.765 128.952 41.4699C128.606 41.1749 128.432 40.7687 128.432 40.2514C128.432 39.8837 128.535 39.5587 128.74 39.2765C128.945 38.99 129.225 38.7656 129.58 38.6031C129.94 38.4406 130.352 38.3594 130.818 38.3594C131.28 38.3594 131.71 38.4256 132.107 38.5582C132.509 38.6865 132.858 38.8746 133.153 39.1226L132.697 40.0205C132.548 39.8794 132.37 39.7575 132.165 39.6549C131.964 39.5523 131.748 39.4732 131.517 39.4176C131.286 39.3577 131.055 39.3278 130.825 39.3278C130.444 39.3278 130.132 39.4048 129.888 39.5587C129.649 39.7126 129.529 39.9264 129.529 40.2001C129.529 40.4865 129.645 40.696 129.875 40.8286C130.111 40.9611 130.5 41.0915 131.043 41.2198C131.829 41.3951 132.394 41.6303 132.736 41.9253C133.078 42.216 133.249 42.618 133.249 43.131C133.249 43.5287 133.144 43.875 132.935 44.17C132.725 44.4608 132.432 44.6874 132.056 44.8499C131.68 45.0081 131.239 45.0872 130.735 45.0872Z" fill="white"/>
<path d="M123.568 47.7895C123.097 47.7895 122.674 47.7468 122.298 47.6613C121.926 47.5758 121.607 47.4539 121.342 47.2957C121.077 47.1418 120.874 46.9536 120.733 46.7313C120.596 46.509 120.528 46.261 120.528 45.9873C120.528 45.7607 120.588 45.5512 120.707 45.3588C120.827 45.1707 121.004 45.0082 121.24 44.8714C121.475 44.7303 121.766 44.6234 122.112 44.5507C121.86 44.4267 121.669 44.2877 121.541 44.1338C121.417 43.9756 121.355 43.7939 121.355 43.5887C121.355 43.4134 121.406 43.2509 121.509 43.1012C121.612 42.9473 121.755 42.8105 121.939 42.6908C122.127 42.5668 122.349 42.4663 122.606 42.3893C122.867 42.3081 123.153 42.2568 123.465 42.2354L123.754 42.787C123.48 42.787 123.243 42.8105 123.042 42.8575C122.845 42.9046 122.691 42.973 122.58 43.0628C122.473 43.1483 122.42 43.2509 122.42 43.3706C122.42 43.5331 122.509 43.6485 122.689 43.7169C122.873 43.7811 123.119 43.826 123.427 43.8516L124.504 43.935C125.039 43.9778 125.492 44.0654 125.864 44.198C126.236 44.3305 126.52 44.5144 126.717 44.7495C126.913 44.9847 127.012 45.2818 127.012 45.641C127.012 45.9446 126.928 46.2268 126.762 46.4876C126.599 46.7527 126.366 46.9814 126.063 47.1738C125.759 47.3662 125.396 47.5159 124.972 47.6228C124.549 47.734 124.081 47.7895 123.568 47.7895ZM123.658 46.9301C124.337 46.9301 124.872 46.8254 125.261 46.6159C125.65 46.4064 125.845 46.137 125.845 45.8078C125.845 45.5555 125.71 45.3567 125.44 45.2113C125.175 45.0702 124.773 44.9804 124.235 44.9419L123.093 44.8586C122.794 44.8799 122.537 44.9334 122.323 45.0189C122.11 45.1087 121.945 45.2241 121.83 45.3652C121.718 45.5063 121.663 45.6667 121.663 45.8462C121.663 46.06 121.744 46.2482 121.907 46.4106C122.069 46.5731 122.298 46.6992 122.593 46.789C122.892 46.8831 123.247 46.9301 123.658 46.9301ZM123.625 42.896C123.112 42.896 122.648 42.7977 122.234 42.601C121.823 42.4 121.496 42.1307 121.252 41.7929C121.013 41.4551 120.893 41.0767 120.893 40.6577C120.893 40.243 121.013 39.8667 121.252 39.5289C121.496 39.1911 121.825 38.9239 122.24 38.7272C122.655 38.5263 123.117 38.4258 123.625 38.4258C124.139 38.4258 124.6 38.5263 125.011 38.7272C125.426 38.9239 125.753 39.1911 125.992 39.5289C126.236 39.8667 126.358 40.243 126.358 40.6577C126.358 41.0767 126.236 41.4551 125.992 41.7929C125.753 42.1307 125.428 42.4 125.017 42.601C124.607 42.7977 124.143 42.896 123.625 42.896ZM123.625 41.9596C123.942 41.9596 124.22 41.9062 124.459 41.7993C124.703 41.6881 124.893 41.5363 125.03 41.3439C125.167 41.1473 125.235 40.9185 125.235 40.6577C125.235 40.2729 125.086 39.9608 124.786 39.7213C124.491 39.4776 124.104 39.3557 123.625 39.3557C123.309 39.3557 123.029 39.4113 122.785 39.5225C122.546 39.6337 122.358 39.7876 122.221 39.9843C122.088 40.1767 122.022 40.4012 122.022 40.6577C122.022 41.0425 122.17 41.3568 122.465 41.6005C122.764 41.8399 123.151 41.9596 123.625 41.9596ZM124.62 39.5866L124.183 38.7272L127.429 38.6182L127.416 39.6187L124.62 39.5866Z" fill="white"/>
<path d="M116.223 45.0959C115.573 45.0959 114.993 44.9441 114.484 44.6405C113.976 44.3369 113.576 43.9329 113.285 43.4283C112.994 42.9238 112.849 42.368 112.849 41.7608C112.849 41.3119 112.932 40.8864 113.099 40.4845C113.266 40.0826 113.501 39.7277 113.805 39.4199C114.108 39.1078 114.465 38.864 114.876 38.6887C115.286 38.5134 115.735 38.4258 116.223 38.4258C116.877 38.4258 117.458 38.5776 117.967 38.8811C118.476 39.1847 118.876 39.5888 119.166 40.0933C119.457 40.5978 119.602 41.1537 119.602 41.7608C119.602 42.2098 119.519 42.6352 119.352 43.0371C119.186 43.439 118.95 43.7939 118.647 44.1018C118.343 44.4096 117.986 44.6533 117.576 44.8329C117.165 45.0082 116.714 45.0959 116.223 45.0959ZM116.223 44.0312C116.646 44.0312 117.02 43.9393 117.345 43.7554C117.674 43.5673 117.933 43.3043 118.121 42.9666C118.309 42.6245 118.403 42.2226 118.403 41.7608C118.403 41.2948 118.309 40.8929 118.121 40.5551C117.937 40.213 117.681 39.9501 117.351 39.7662C117.022 39.5824 116.646 39.4904 116.223 39.4904C115.799 39.4904 115.423 39.5824 115.094 39.7662C114.769 39.9501 114.512 40.213 114.324 40.5551C114.14 40.8929 114.048 41.2948 114.048 41.7608C114.048 42.2226 114.14 42.6245 114.324 42.9666C114.512 43.3043 114.771 43.5673 115.1 43.7554C115.429 43.9393 115.804 44.0312 116.223 44.0312Z" fill="white"/>
<path d="M108.351 45.0932C107.979 45.0932 107.622 45.0441 107.28 44.9457C106.938 44.8517 106.613 44.7148 106.305 44.5353L106.722 43.5347C106.961 43.6758 107.205 43.787 107.453 43.8682C107.701 43.9452 107.953 43.9837 108.21 43.9837C108.787 43.9837 109.227 43.8511 109.531 43.586C109.835 43.3167 109.986 42.8806 109.986 42.2777V35.9219H111.192V42.438C111.192 42.9768 111.081 43.4449 110.859 43.8426C110.641 44.2402 110.32 44.5481 109.897 44.7661C109.473 44.9842 108.958 45.0932 108.351 45.0932Z" fill="white"/>
<path d="M100.655 44.9036V38.6183H101.835V44.9036H100.655ZM101.245 37.4318C101.023 37.4318 100.83 37.357 100.668 37.2073C100.505 37.0577 100.424 36.8695 100.424 36.6429C100.424 36.4078 100.505 36.2175 100.668 36.0721C100.83 35.9225 101.023 35.8477 101.245 35.8477C101.472 35.8477 101.664 35.9225 101.822 36.0721C101.985 36.2175 102.066 36.4078 102.066 36.6429C102.066 36.8695 101.985 37.0577 101.822 37.2073C101.664 37.357 101.472 37.4318 101.245 37.4318Z" fill="white"/>
<path d="M97.8286 45.0943C97.2428 45.0943 96.7704 44.9233 96.4112 44.5812C96.0563 44.2392 95.8789 43.7111 95.8789 42.9971V36.7695H97.059V38.6166H98.8997V39.6171H97.059V42.7021C97.059 43.1809 97.1445 43.5187 97.3155 43.7154C97.4908 43.9078 97.7452 44.004 98.0787 44.004C98.2284 44.004 98.3695 43.9869 98.502 43.9527C98.6388 43.9185 98.7586 43.8736 98.8612 43.818L99.1049 44.7864C98.9296 44.8805 98.7308 44.9553 98.5084 45.0109C98.2861 45.0665 98.0595 45.0943 97.8286 45.0943ZM94.4423 39.6171V38.6166H96.0585V39.6171H94.4423Z" fill="white"/>
<path d="M90.8693 45.0959C90.2022 45.0959 89.6143 44.9569 89.1055 44.679C88.5967 44.4011 88.1991 44.0141 87.9126 43.5181C87.6261 43.0179 87.4829 42.4364 87.4829 41.7736C87.4829 41.2948 87.5641 40.8501 87.7266 40.4396C87.8934 40.0292 88.1243 39.6743 88.4193 39.375C88.7186 39.0757 89.0671 38.8427 89.4647 38.6759C89.8666 38.5092 90.3027 38.4258 90.7731 38.4258C91.2819 38.4258 91.7351 38.5156 92.1327 38.6952C92.5346 38.8747 92.866 39.127 93.1268 39.4519C93.3919 39.7726 93.5822 40.151 93.6976 40.5871C93.8131 41.019 93.8366 41.4893 93.7682 41.9981H88.6502C88.6373 42.4171 88.7229 42.7848 88.9067 43.1012C89.0906 43.4134 89.3557 43.6571 89.702 43.8324C90.0526 44.0077 90.4673 44.0953 90.9462 44.0953C91.2968 44.0953 91.6389 44.0398 91.9724 43.9286C92.3059 43.8174 92.6009 43.6528 92.8575 43.4348L93.3577 44.3134C93.1525 44.4802 92.9088 44.6234 92.6266 44.7431C92.3486 44.8586 92.0579 44.9462 91.7543 45.0061C91.4508 45.0659 91.1557 45.0959 90.8693 45.0959ZM88.7143 41.081H92.5881C92.571 40.5508 92.4064 40.1382 92.0942 39.8432C91.7821 39.5439 91.3353 39.3942 90.7538 39.3942C90.1894 39.3942 89.7234 39.5439 89.3557 39.8432C88.988 40.1382 88.7742 40.5508 88.7143 41.081Z" fill="white"/>
<path d="M81.4861 44.9025V44.0238L84.9173 39.6754H81.5438V38.6172H86.3668V39.4958L82.9869 43.8378H86.4181V44.9025H81.4861Z" fill="white"/>
<path d="M69.9152 44.9035V38.6182H71.0953V39.5097C71.2706 39.2531 71.4694 39.0458 71.6917 38.8876C71.9183 38.7294 72.1556 38.6139 72.4036 38.5412C72.6559 38.4643 72.9103 38.4258 73.1668 38.4258C73.697 38.4258 74.1331 38.5412 74.4752 38.7721C74.8215 39.003 75.0674 39.2937 75.2127 39.6444C75.5462 39.1655 75.9204 38.8427 76.3351 38.6759C76.7498 38.5092 77.1582 38.4258 77.5601 38.4258C78.133 38.4258 78.5927 38.5412 78.939 38.7721C79.2853 38.9987 79.5355 39.2895 79.6894 39.6444C79.8476 39.9992 79.9267 40.3627 79.9267 40.7347V44.9035H78.7466V41.081C78.7466 40.6149 78.6183 40.2387 78.3618 39.9522C78.1052 39.6657 77.729 39.5225 77.233 39.5225C76.908 39.5225 76.6152 39.5952 76.3543 39.7406C76.0935 39.8817 75.8862 40.0805 75.7322 40.337C75.5826 40.5936 75.5078 40.8886 75.5078 41.2221V44.9035H74.3277V41.081C74.3277 40.6149 74.1994 40.2387 73.9429 39.9522C73.6906 39.6657 73.3143 39.5225 72.8141 39.5225C72.4934 39.5225 72.2027 39.5952 71.9418 39.7406C71.681 39.8817 71.4736 40.0805 71.3197 40.337C71.1701 40.5936 71.0953 40.8886 71.0953 41.2221V44.9035H69.9152Z" fill="white"/>
<path d="M65.4907 45.0959C64.8237 45.0959 64.2358 44.9569 63.727 44.679C63.2182 44.4011 62.8205 44.0141 62.5341 43.5181C62.2476 43.0179 62.1044 42.4364 62.1044 41.7736C62.1044 41.2948 62.1856 40.8501 62.3481 40.4396C62.5148 40.0292 62.7457 39.6743 63.0407 39.375C63.34 39.0757 63.6885 38.8427 64.0862 38.6759C64.4881 38.5092 64.9242 38.4258 65.3945 38.4258C65.9033 38.4258 66.3565 38.5156 66.7542 38.6952C67.1561 38.8747 67.4875 39.127 67.7483 39.4519C68.0134 39.7726 68.2036 40.151 68.3191 40.5871C68.4345 41.019 68.458 41.4893 68.3896 41.9981H63.2716C63.2588 42.4171 63.3443 42.7848 63.5282 43.1012C63.712 43.4134 63.9771 43.6571 64.3235 43.8324C64.6741 44.0077 65.0888 44.0953 65.5677 44.0953C65.9183 44.0953 66.2603 44.0398 66.5938 43.9286C66.9273 43.8174 67.2224 43.6528 67.4789 43.4348L67.9792 44.3134C67.7739 44.4802 67.5302 44.6234 67.248 44.7431C66.9701 44.8586 66.6794 44.9462 66.3758 45.0061C66.0722 45.0659 65.7772 45.0959 65.4907 45.0959ZM63.3358 41.081H67.2095C67.1924 40.5508 67.0278 40.1382 66.7157 39.8432C66.4036 39.5439 65.9568 39.3942 65.3753 39.3942C64.8109 39.3942 64.3448 39.5439 63.9771 39.8432C63.6094 40.1382 63.3956 40.5508 63.3358 41.081Z" fill="white"/>
<path d="M53.3158 44.9008V35.9219H54.4446L59.2547 42.7844V35.9219H60.4348V44.9008H59.306L54.5023 37.9614V44.9008H53.3158Z" fill="white"/>
<path d="M161.099 29.0559C160.603 29.0559 160.133 28.9832 159.688 28.8379C159.247 28.6882 158.88 28.4894 158.585 28.2414L159.072 27.3499C159.35 27.5808 159.666 27.7625 160.021 27.8951C160.381 28.0233 160.74 28.0875 161.099 28.0875C161.543 28.0875 161.89 28.0084 162.138 27.8502C162.386 27.6877 162.51 27.459 162.51 27.1639C162.51 26.8903 162.403 26.6872 162.189 26.5546C161.975 26.4221 161.578 26.2853 160.996 26.1442C160.227 25.9689 159.666 25.7337 159.316 25.4387C158.97 25.1437 158.796 24.7375 158.796 24.2201C158.796 23.8524 158.899 23.5275 159.104 23.2453C159.309 22.9588 159.59 22.7343 159.944 22.5718C160.304 22.4094 160.716 22.3281 161.182 22.3281C161.644 22.3281 162.074 22.3944 162.471 22.5269C162.873 22.6552 163.222 22.8433 163.517 23.0913L163.061 23.9892C162.912 23.8481 162.734 23.7263 162.529 23.6237C162.328 23.521 162.112 23.4419 161.881 23.3864C161.65 23.3265 161.42 23.2966 161.189 23.2966C160.808 23.2966 160.496 23.3735 160.252 23.5275C160.013 23.6814 159.893 23.8952 159.893 24.1688C159.893 24.4553 160.009 24.6648 160.239 24.7973C160.475 24.9299 160.864 25.0603 161.407 25.1886C162.193 25.3639 162.758 25.599 163.1 25.894C163.442 26.1848 163.613 26.5867 163.613 27.0998C163.613 27.4974 163.508 27.8438 163.299 28.1388C163.089 28.4295 162.796 28.6561 162.42 28.8186C162.044 28.9768 161.603 29.0559 161.099 29.0559Z" fill="white"/>
<path d="M154.641 29.0587C153.974 29.0587 153.386 28.9198 152.878 28.6419C152.369 28.3639 151.971 27.977 151.685 27.481C151.398 26.9808 151.255 26.3993 151.255 25.7365C151.255 25.2577 151.336 24.813 151.499 24.4025C151.665 23.9921 151.896 23.6372 152.191 23.3379C152.491 23.0386 152.839 22.8055 153.237 22.6388C153.639 22.472 154.075 22.3887 154.545 22.3887C155.054 22.3887 155.507 22.4785 155.905 22.658C156.307 22.8376 156.638 23.0899 156.899 23.4148C157.164 23.7355 157.354 24.1139 157.47 24.55C157.585 24.9819 157.609 25.4522 157.54 25.961H152.422C152.409 26.38 152.495 26.7477 152.679 27.0641C152.863 27.3763 153.128 27.62 153.474 27.7953C153.825 27.9706 154.239 28.0582 154.718 28.0582C155.069 28.0582 155.411 28.0026 155.744 27.8915C156.078 27.7803 156.373 27.6157 156.63 27.3976L157.13 28.2763C156.925 28.443 156.681 28.5863 156.399 28.706C156.121 28.8214 155.83 28.9091 155.526 28.969C155.223 29.0288 154.928 29.0587 154.641 29.0587ZM152.486 25.0439H156.36C156.343 24.5137 156.178 24.1011 155.866 23.8061C155.554 23.5068 155.107 23.3571 154.526 23.3571C153.962 23.3571 153.495 23.5068 153.128 23.8061C152.76 24.1011 152.546 24.5137 152.486 25.0439ZM153.897 21.3625L155.09 19.1562H156.302L154.994 21.3625H153.897Z" fill="white"/>
<path d="M142.39 31.747C142.185 31.747 141.982 31.7213 141.781 31.67C141.58 31.623 141.377 31.5375 141.171 31.4135L141.447 30.3937C141.58 30.4792 141.723 30.5434 141.877 30.5861C142.031 30.6289 142.168 30.6503 142.287 30.6503C142.604 30.6503 142.85 30.5733 143.025 30.4194C143.2 30.2654 143.341 30.0303 143.448 29.7139L143.698 28.9956L141.21 22.582H142.505L144.365 27.6487L146.18 22.582H147.431L144.68 29.8678C144.491 30.3638 144.282 30.7465 144.051 31.0158C143.824 31.2895 143.574 31.4797 143.301 31.5866C143.027 31.6935 142.723 31.747 142.39 31.747Z" fill="white"/>
<path d="M134.389 28.8683V22.583H135.569V23.4296C135.838 23.0619 136.152 22.7968 136.512 22.6343C136.871 22.4719 137.238 22.3906 137.615 22.3906C138.183 22.3906 138.654 22.5061 139.026 22.737C139.402 22.9636 139.682 23.2543 139.866 23.6092C140.054 23.9641 140.148 24.3275 140.148 24.6995V28.8683H138.968V25.0651C138.968 24.5905 138.82 24.2099 138.525 23.9235C138.23 23.6327 137.828 23.4873 137.32 23.4873C136.986 23.4873 136.687 23.5622 136.422 23.7118C136.161 23.8572 135.954 24.0646 135.8 24.3339C135.646 24.6033 135.569 24.9133 135.569 25.2639V28.8683H134.389Z" fill="white"/>
<path d="M129.526 29.06C128.876 29.06 128.296 28.9082 127.788 28.6046C127.279 28.3011 126.879 27.897 126.588 27.3925C126.297 26.8879 126.152 26.3321 126.152 25.725C126.152 25.276 126.235 24.8506 126.402 24.4487C126.569 24.0468 126.804 23.6919 127.108 23.384C127.411 23.0719 127.768 22.8282 128.179 22.6529C128.589 22.4776 129.038 22.3899 129.526 22.3899C130.18 22.3899 130.761 22.5417 131.27 22.8453C131.779 23.1489 132.179 23.5529 132.469 24.0574C132.76 24.562 132.906 25.1178 132.906 25.725C132.906 26.1739 132.822 26.5993 132.655 27.0013C132.489 27.4032 132.254 27.7581 131.95 28.0659C131.646 28.3737 131.289 28.6175 130.879 28.797C130.468 28.9723 130.017 29.06 129.526 29.06ZM129.526 27.9954C129.949 27.9954 130.323 27.9034 130.648 27.7196C130.977 27.5314 131.236 27.2685 131.424 26.9307C131.612 26.5886 131.706 26.1867 131.706 25.725C131.706 25.2589 131.612 24.857 131.424 24.5192C131.24 24.1772 130.984 23.9142 130.654 23.7304C130.325 23.5465 129.949 23.4546 129.526 23.4546C129.102 23.4546 128.726 23.5465 128.397 23.7304C128.072 23.9142 127.815 24.1772 127.627 24.5192C127.443 24.857 127.351 25.2589 127.351 25.725C127.351 26.1867 127.443 26.5886 127.627 26.9307C127.815 27.2685 128.074 27.5314 128.403 27.7196C128.732 27.9034 129.107 27.9954 129.526 27.9954ZM128.211 21.4022C128.001 21.4022 127.817 21.3296 127.659 21.1842C127.501 21.0345 127.422 20.8464 127.422 20.6198C127.422 20.4701 127.458 20.3376 127.531 20.2221C127.604 20.1024 127.7 20.0105 127.82 19.9464C127.939 19.878 128.07 19.8438 128.211 19.8438C128.425 19.8438 128.608 19.9164 128.762 20.0618C128.921 20.2072 129 20.3932 129 20.6198C129 20.7737 128.963 20.9105 128.891 21.0303C128.818 21.1457 128.722 21.2376 128.602 21.306C128.482 21.3702 128.352 21.4022 128.211 21.4022ZM130.84 21.4022C130.631 21.4022 130.447 21.3296 130.289 21.1842C130.131 21.0345 130.052 20.8464 130.052 20.6198C130.052 20.4701 130.088 20.3376 130.161 20.2221C130.233 20.1024 130.329 20.0105 130.449 19.9464C130.569 19.878 130.699 19.8438 130.84 19.8438C131.054 19.8438 131.238 19.9164 131.392 20.0618C131.55 20.2072 131.629 20.3932 131.629 20.6198C131.629 20.7737 131.593 20.9105 131.52 21.0303C131.448 21.1457 131.351 21.2376 131.232 21.306C131.112 21.3702 130.981 21.4022 130.84 21.4022Z" fill="white"/>
<path d="M123.491 28.8683V19.6328H124.671V28.8683H123.491Z" fill="white"/>
<path d="M116.936 28.8673V27.9886L120.367 23.6403H116.994V22.582H121.817V23.4607L118.437 27.8026H121.868V28.8673H116.936Z" fill="white"/>
<path d="M112.49 29.06C111.84 29.06 111.26 28.9082 110.752 28.6046C110.243 28.3011 109.843 27.897 109.552 27.3925C109.261 26.8879 109.116 26.3321 109.116 25.725C109.116 25.276 109.199 24.8506 109.366 24.4487C109.533 24.0468 109.768 23.6919 110.072 23.384C110.375 23.0719 110.732 22.8282 111.143 22.6529C111.553 22.4776 112.002 22.3899 112.49 22.3899C113.144 22.3899 113.725 22.5417 114.234 22.8453C114.743 23.1489 115.143 23.5529 115.433 24.0574C115.724 24.562 115.87 25.1178 115.87 25.725C115.87 26.1739 115.786 26.5993 115.619 27.0013C115.453 27.4032 115.217 27.7581 114.914 28.0659C114.61 28.3737 114.253 28.6175 113.843 28.797C113.432 28.9723 112.981 29.06 112.49 29.06ZM112.49 27.9954C112.913 27.9954 113.287 27.9034 113.612 27.7196C113.941 27.5314 114.2 27.2685 114.388 26.9307C114.576 26.5886 114.67 26.1867 114.67 25.725C114.67 25.2589 114.576 24.857 114.388 24.5192C114.204 24.1772 113.948 23.9142 113.618 23.7304C113.289 23.5465 112.913 23.4546 112.49 23.4546C112.066 23.4546 111.69 23.5465 111.361 23.7304C111.036 23.9142 110.779 24.1772 110.591 24.5192C110.407 24.857 110.315 25.2589 110.315 25.725C110.315 26.1867 110.407 26.5886 110.591 26.9307C110.779 27.2685 111.038 27.5314 111.367 27.7196C111.696 27.9034 112.071 27.9954 112.49 27.9954ZM111.175 21.4022C110.965 21.4022 110.781 21.3296 110.623 21.1842C110.465 21.0345 110.386 20.8464 110.386 20.6198C110.386 20.4701 110.422 20.3376 110.495 20.2221C110.568 20.1024 110.664 20.0105 110.784 19.9464C110.903 19.878 111.034 19.8438 111.175 19.8438C111.389 19.8438 111.572 19.9164 111.726 20.0618C111.885 20.2072 111.964 20.3932 111.964 20.6198C111.964 20.7737 111.927 20.9105 111.855 21.0303C111.782 21.1457 111.686 21.2376 111.566 21.306C111.446 21.3702 111.316 21.4022 111.175 21.4022ZM113.804 21.4022C113.595 21.4022 113.411 21.3296 113.253 21.1842C113.095 21.0345 113.016 20.8464 113.016 20.6198C113.016 20.4701 113.052 20.3376 113.125 20.2221C113.197 20.1024 113.293 20.0105 113.413 19.9464C113.533 19.878 113.663 19.8438 113.804 19.8438C114.018 19.8438 114.202 19.9164 114.356 20.0618C114.514 20.2072 114.593 20.3932 114.593 20.6198C114.593 20.7737 114.557 20.9105 114.484 21.0303C114.412 21.1457 114.315 21.2376 114.196 21.306C114.076 21.3702 113.945 21.4022 113.804 21.4022Z" fill="white"/>
<path d="M101.492 28.8696V19.8906H102.698V24.7393L106.63 19.8906H108.105L104.834 23.9312L108.624 28.8696H107.066L104.045 24.8611L102.698 26.4709V28.8696H101.492Z" fill="white"/>
<path d="M92.9639 28.8669V22.5816H94.144V23.4924C94.3962 23.0819 94.6955 22.7954 95.0419 22.6329C95.3925 22.4662 95.7644 22.3828 96.1578 22.3828C96.2818 22.3828 96.4015 22.3892 96.517 22.4021C96.6324 22.4149 96.7457 22.432 96.8569 22.4534L96.6837 23.6783C96.564 23.6441 96.4421 23.6185 96.3181 23.6014C96.1942 23.58 96.0723 23.5693 95.9526 23.5693C95.4267 23.5693 94.9927 23.7339 94.6506 24.0632C94.3128 24.3881 94.144 24.8242 94.144 25.3715V28.8669H92.9639Z" fill="white"/>
<path d="M87.7371 29.0623C87.2925 29.0623 86.9055 28.9811 86.5763 28.8186C86.2471 28.6561 85.9926 28.4274 85.8131 28.1324C85.6335 27.8331 85.5437 27.4803 85.5437 27.0741C85.5437 26.7406 85.6292 26.4371 85.8002 26.1634C85.9713 25.8855 86.2406 25.6567 86.6083 25.4772C86.9761 25.2933 87.4528 25.1715 88.0386 25.1116C88.6243 25.0475 89.332 25.0582 90.1614 25.1437L90.1935 26.0095C89.5522 25.924 89.007 25.8919 88.5581 25.9133C88.1091 25.9304 87.7457 25.9903 87.4678 26.0929C87.1898 26.1912 86.9846 26.3238 86.8521 26.4905C86.7238 26.653 86.6597 26.8368 86.6597 27.0421C86.6597 27.3713 86.7772 27.63 87.0124 27.8181C87.2518 28.002 87.5789 28.0939 87.9937 28.0939C88.3486 28.0939 88.665 28.0298 88.9429 27.9015C89.2251 27.7689 89.4474 27.5872 89.6099 27.3563C89.7766 27.1212 89.86 26.8497 89.86 26.5418V24.7845C89.86 24.4895 89.7937 24.2329 89.6612 24.0149C89.5329 23.7968 89.3427 23.6279 89.0904 23.5082C88.8381 23.3885 88.5281 23.3286 88.1604 23.3286C87.8312 23.3286 87.5041 23.3778 87.1792 23.4761C86.8542 23.5745 86.5421 23.7348 86.2428 23.9572L85.8836 23.0464C86.2727 22.7813 86.6746 22.5954 87.0894 22.4885C87.5041 22.3816 87.9017 22.3281 88.2823 22.3281C88.8595 22.3281 89.3512 22.4201 89.7574 22.6039C90.1636 22.7835 90.4736 23.055 90.6874 23.4184C90.9011 23.7819 91.008 24.2351 91.008 24.7781V28.8699H89.9241V28.1003C89.7061 28.4124 89.4046 28.6519 89.0198 28.8186C88.635 28.9811 88.2075 29.0623 87.7371 29.0623Z" fill="white"/>
<path d="M79.7828 31.747C79.5775 31.747 79.3745 31.7213 79.1735 31.67C78.9725 31.623 78.7694 31.5375 78.5642 31.4135L78.84 30.3937C78.9725 30.4792 79.1158 30.5434 79.2697 30.5861C79.4236 30.6289 79.5604 30.6503 79.6802 30.6503C79.9966 30.6503 80.2424 30.5733 80.4177 30.4194C80.593 30.2654 80.7341 30.0303 80.841 29.7139L81.0911 28.9956L78.6027 22.582H79.8982L81.7581 27.6487L83.5732 22.582H84.8238L82.0724 29.8678C81.8843 30.3638 81.6748 30.7465 81.4439 31.0158C81.2173 31.2895 80.9671 31.4797 80.6935 31.5866C80.4199 31.6935 80.1163 31.747 79.7828 31.747Z" fill="white"/>
<path d="M74.2136 31.7544C73.7433 31.7544 73.32 31.7116 72.9437 31.6261C72.5717 31.5406 72.2532 31.4187 71.9881 31.2605C71.723 31.1066 71.5199 30.9185 71.3788 30.6961C71.242 30.4738 71.1736 30.2258 71.1736 29.9522C71.1736 29.7256 71.2334 29.5161 71.3532 29.3237C71.4729 29.1355 71.6503 28.973 71.8855 28.8362C72.1206 28.6951 72.4114 28.5882 72.7577 28.5155C72.5055 28.3916 72.3152 28.2526 72.1869 28.0987C72.0629 27.9405 72.0009 27.7588 72.0009 27.5535C72.0009 27.3782 72.0522 27.2157 72.1549 27.0661C72.2575 26.9122 72.4007 26.7753 72.5846 26.6556C72.7727 26.5316 72.995 26.4312 73.2516 26.3542C73.5124 26.273 73.7989 26.2216 74.111 26.2003L74.3996 26.7518C74.1259 26.7518 73.8886 26.7753 73.6877 26.8224C73.491 26.8694 73.3371 26.9378 73.2259 27.0276C73.119 27.1131 73.0656 27.2157 73.0656 27.3355C73.0656 27.4979 73.1554 27.6134 73.3349 27.6818C73.5188 27.7459 73.7647 27.7908 74.0725 27.8165L75.15 27.8998C75.6844 27.9426 76.1377 28.0303 76.5096 28.1628C76.8816 28.2953 77.166 28.4792 77.3626 28.7144C77.5593 28.9495 77.6577 29.2467 77.6577 29.6058C77.6577 29.9094 77.5743 30.1916 77.4075 30.4524C77.2451 30.7175 77.012 30.9463 76.7085 31.1387C76.4049 31.3311 76.0415 31.4807 75.6182 31.5876C75.1949 31.6988 74.7267 31.7544 74.2136 31.7544ZM74.3034 30.895C74.9832 30.895 75.5177 30.7902 75.9068 30.5807C76.2959 30.3712 76.4904 30.1018 76.4904 29.7726C76.4904 29.5203 76.3557 29.3215 76.0864 29.1761C75.8213 29.035 75.4193 28.9453 74.8806 28.9068L73.739 28.8234C73.4397 28.8448 73.1832 28.8982 72.9694 28.9837C72.7556 29.0735 72.591 29.189 72.4755 29.3301C72.3644 29.4712 72.3088 29.6315 72.3088 29.8111C72.3088 30.0249 72.39 30.213 72.5525 30.3755C72.715 30.5379 72.9437 30.6641 73.2387 30.7539C73.538 30.8479 73.8929 30.895 74.3034 30.895ZM74.2713 26.8609C73.7582 26.8609 73.2943 26.7625 72.8796 26.5658C72.4691 26.3649 72.142 26.0955 71.8983 25.7577C71.6589 25.4199 71.5392 25.0416 71.5392 24.6225C71.5392 24.2078 71.6589 23.8315 71.8983 23.4938C72.142 23.156 72.4713 22.8887 72.886 22.6921C73.3007 22.4911 73.7625 22.3906 74.2713 22.3906C74.7844 22.3906 75.2462 22.4911 75.6566 22.6921C76.0714 22.8887 76.3985 23.156 76.6379 23.4938C76.8816 23.8315 77.0035 24.2078 77.0035 24.6225C77.0035 25.0416 76.8816 25.4199 76.6379 25.7577C76.3985 26.0955 76.0735 26.3649 75.6631 26.5658C75.2526 26.7625 74.7887 26.8609 74.2713 26.8609ZM74.2713 25.9245C74.5877 25.9245 74.8656 25.871 75.1051 25.7641C75.3488 25.653 75.5391 25.5012 75.6759 25.3088C75.8127 25.1121 75.8811 24.8834 75.8811 24.6225C75.8811 24.2377 75.7315 23.9256 75.4322 23.6862C75.1371 23.4424 74.7502 23.3206 74.2713 23.3206C73.9549 23.3206 73.6749 23.3762 73.4311 23.4873C73.1917 23.5985 73.0036 23.7524 72.8668 23.9491C72.7342 24.1415 72.6679 24.366 72.6679 24.6225C72.6679 25.0073 72.8154 25.3216 73.1105 25.5653C73.4098 25.8048 73.7967 25.9245 74.2713 25.9245ZM75.2654 23.5515L74.8293 22.6921L78.0745 22.583L78.0617 23.5835L75.2654 23.5515Z" fill="white"/>
<path d="M66.5048 29.0623C66.0602 29.0623 65.6732 28.9811 65.344 28.8186C65.0148 28.6561 64.7603 28.4274 64.5808 28.1324C64.4012 27.8331 64.3114 27.4803 64.3114 27.0741C64.3114 26.7406 64.3969 26.4371 64.5679 26.1634C64.739 25.8855 65.0083 25.6567 65.376 25.4772C65.7438 25.2933 66.2205 25.1715 66.8063 25.1116C67.392 25.0475 68.0997 25.0582 68.9291 25.1437L68.9612 26.0095C68.3199 25.924 67.7747 25.8919 67.3258 25.9133C66.8768 25.9304 66.5134 25.9903 66.2355 26.0929C65.9575 26.1912 65.7523 26.3238 65.6198 26.4905C65.4915 26.653 65.4274 26.8368 65.4274 27.0421C65.4274 27.3713 65.5449 27.63 65.7801 27.8181C66.0195 28.002 66.3466 28.0939 66.7614 28.0939C67.1163 28.0939 67.4327 28.0298 67.7106 27.9015C67.9928 27.7689 68.2151 27.5872 68.3776 27.3563C68.5443 27.1212 68.6277 26.8497 68.6277 26.5418V24.7845C68.6277 24.4895 68.5614 24.2329 68.4289 24.0149C68.3006 23.7968 68.1104 23.6279 67.8581 23.5082C67.6058 23.3885 67.2958 23.3286 66.9281 23.3286C66.5989 23.3286 66.2718 23.3778 65.9469 23.4761C65.6219 23.5745 65.3098 23.7348 65.0105 23.9572L64.6513 23.0464C65.0404 22.7813 65.4423 22.5954 65.8571 22.4885C66.2718 22.3816 66.6694 22.3281 67.05 22.3281C67.6272 22.3281 68.1189 22.4201 68.5251 22.6039C68.9313 22.7835 69.2413 23.055 69.4551 23.4184C69.6688 23.7819 69.7757 24.2351 69.7757 24.7781V28.8699H68.6918V28.1003C68.4738 28.4124 68.1723 28.6519 67.7875 28.8186C67.4027 28.9811 66.9752 29.0623 66.5048 29.0623Z" fill="white"/>
<path d="M53.3158 28.8696V19.8906H54.4895L58.235 25.9514H57.7732L61.3904 19.8906H62.532V28.8696H61.352L61.3648 21.5325L61.6021 21.6095L58.3953 26.8493H57.4654L54.2201 21.6095L54.4061 21.5325L54.4189 28.8696H53.3158Z" fill="white"/>
<path d="M91.7738 12.8344V3.85547H94.134V7.43422L96.9559 3.85547H99.9062L96.5711 8.00502L100.317 12.8344H97.2894L95.0191 9.78157L94.134 10.7693V12.8344H91.7738Z" fill="white"/>
<path d="M86.4816 13.0268C85.9642 13.0268 85.4853 12.9584 85.0449 12.8216C84.6046 12.6848 84.2155 12.5009 83.8777 12.27L84.5575 10.3716C84.8525 10.5341 85.1305 10.6581 85.3913 10.7436C85.6521 10.8291 85.9044 10.8719 86.1481 10.8719C86.5329 10.8719 86.8343 10.765 87.0524 10.5512C87.2747 10.3331 87.3859 9.98894 87.3859 9.51862V3.85547H89.7461V10.0317C89.7461 10.6217 89.6178 11.1412 89.3613 11.5902C89.109 12.0391 88.7391 12.3919 88.2517 12.6484C87.7643 12.9007 87.1742 13.0268 86.4816 13.0268Z" fill="white"/>
<path d="M74.788 12.8344V3.85547H77.1353L80.5537 9.01836V3.85547H82.8369V12.8344H80.4896L77.0712 7.59456V12.8344H74.788Z" fill="white"/>
<path d="M65.2303 12.8344V3.85547H67.5905V7.43422L70.4125 3.85547H73.3627L70.0277 8.00502L73.7732 12.8344H70.746L68.4756 9.78157L67.5905 10.7693V12.8344H65.2303Z" fill="white"/>
<path d="M53.1298 12.8344V3.85547H55.4002L58.7288 9.416L57.786 9.42883L60.9286 3.85547H63.1926V12.8344H60.9158L60.9607 6.84418L61.3712 6.9981L58.934 11.2246H57.3883L54.8422 6.9981L55.2462 6.84418L55.2911 12.8344H53.1298Z" fill="white"/>
<path d="M39.8029 23.7744H38.688C38.6081 23.7744 38.5381 23.7244 38.5082 23.6494L36.7984 19.0052C36.7984 19.0052 36.7984 18.9952 36.7984 18.9902C36.7984 18.9752 36.7984 18.9652 36.7934 18.9502C36.7934 18.9452 36.7934 18.9402 36.7886 18.9402C36.7886 18.9302 36.7784 18.9202 36.7736 18.9102C36.7685 18.9002 36.7586 18.8902 36.7535 18.8802C36.7485 18.8702 36.7335 18.8652 36.7236 18.8602C36.7135 18.8552 36.7036 18.8452 36.6934 18.8402C36.6835 18.8402 36.6785 18.8402 36.6686 18.8302C36.6536 18.8302 36.6386 18.8202 36.6186 18.8202C36.6135 18.8202 36.6084 18.8202 36.5986 18.8202C36.5884 18.8202 36.5734 18.8202 36.5585 18.8252L33.2592 19.895C33.1892 19.92 33.1192 19.895 33.0791 19.8351C33.0492 19.7951 33.0193 19.76 32.9891 19.7251C32.8442 19.5751 32.6542 19.4901 32.4543 19.4601C32.4792 19.0102 32.6743 18.5703 32.7491 18.1303C32.7841 17.9354 32.7991 17.7404 32.7892 17.5405C32.7793 17.1455 32.5441 16.7556 32.4894 16.3607C32.4592 16.1407 32.4394 15.9207 32.4442 15.7008C32.4442 15.7008 32.4442 15.7008 32.4442 15.6958L33.4391 14.211V12.8213C33.4391 12.6163 33.2691 12.4463 33.0591 12.4463H32.5791V7.16729C32.5791 5.23762 31.0094 3.66791 29.0798 3.66791H20.7563C20.7313 2.99801 20.4614 2.33814 19.8865 1.96321C18.6767 1.17335 18.9167 -0.216407 16.2771 0.02855C13.6376 -0.216407 13.8775 1.17335 12.6678 1.96321C12.0928 2.33814 11.8229 2.99801 11.7979 3.66791H3.49938C1.56972 3.66791 0 5.23762 0 7.16729V34.1024C0 40.3615 3.59436 42.5162 7.83862 44.2008C8.4785 44.4557 9.13837 44.7008 9.79827 44.9456C11.7179 45.6556 13.7076 46.3953 15.4473 47.4653C15.5023 47.4952 15.5573 47.535 15.6122 47.5652L16.2871 47.9901L16.877 47.62L16.957 47.57C18.7367 46.4453 20.7863 45.6855 22.771 44.9506C22.791 44.9456 22.811 44.9357 22.826 44.9306C23.2609 44.7705 23.6908 44.6107 24.1157 44.4456C24.3157 44.3707 24.5107 44.2957 24.7056 44.2158C28.9648 42.5311 32.5693 40.3815 32.5693 34.1075V21.3198C32.7192 21.2748 32.8592 21.1948 32.9741 21.0798C33.1641 20.8899 33.2491 20.6499 33.2491 20.405C33.2491 20.335 33.294 20.28 33.3592 20.26L36.1135 19.3651C36.1886 19.3401 36.2586 19.4101 36.2335 19.4851L34.6988 23.6444C34.674 23.7194 34.5989 23.7694 34.519 23.7694H33.4041C33.3041 23.7694 33.2141 23.8493 33.2141 23.9543C33.2141 24.6042 33.3942 25.2341 33.744 25.769C34.364 26.7538 35.4337 27.3388 36.5986 27.3388C38.4681 27.3388 39.983 25.819 39.983 23.9493C39.983 23.8493 39.898 23.7644 39.793 23.7644L39.8029 23.7744ZM20.5164 4.9027C20.6064 4.70773 20.6713 4.49776 20.7113 4.27781H29.0798C30.6797 4.27781 31.9795 5.57756 31.9795 7.17728V12.4563H31.4496C31.3245 12.4563 31.2045 12.5163 31.1345 12.6263L30.7344 13.2212C30.6946 13.2812 30.6746 13.3562 30.6746 13.4312V15.2259L25.8954 19.1052L23.8558 13.3862C23.6558 12.8213 22.746 11.7715 20.9263 11.7715H18.5817C18.1668 11.7715 17.7869 11.4315 17.7869 11.0166V9.23691C18.2218 8.85699 18.5767 8.35708 18.7417 7.80717L19.1016 6.5874C19.6415 6.00748 19.9565 5.82253 20.2464 5.4126C20.3164 5.3126 20.3864 5.19764 20.4564 5.06266C20.4814 5.01766 20.5014 4.97269 20.5264 4.92269L20.5164 4.9027ZM16.2771 18.0604C12.3378 16.0107 10.6281 12.2164 10.5731 12.0964C10.6481 12.1814 13.0127 14.9609 16.2771 16.3307C17.8318 16.9856 19.5865 17.3205 21.3912 16.8906L20.5814 19.2951C18.9217 19.1552 17.4919 18.6902 16.2771 18.0604ZM19.4816 23.5094L21.9961 28.1536C19.4466 27.8487 17.5969 27.2688 16.2721 26.6188C13.4826 25.2591 12.9777 23.5894 12.9577 23.5094C13.0277 23.5544 14.5024 24.4192 16.2721 24.4992C17.3119 24.5492 18.4567 24.3293 19.4816 23.5044V23.5094ZM20.3814 3.7229C20.3564 4.2828 20.1614 4.86269 20.0965 5.04267C20.0814 5.08265 20.0764 5.10264 20.0764 5.10264C20.0764 5.08265 20.0764 5.06266 20.0764 5.04267C20.0664 4.2428 19.8465 3.83287 19.5515 3.56291C19.0216 3.08302 18.2368 3.05301 17.9418 2.04819C17.9418 2.04819 18.4267 2.47312 19.3916 2.47312C20.2264 2.47312 20.4114 3.08302 20.3864 3.7179L20.3814 3.7229ZM16.2771 0.388485C16.5721 0.363491 17.8218 0.293504 18.1768 0.788415C19.0916 2.07319 19.6065 2.15317 19.6065 2.15317C17.6119 2.15317 17.6469 0.443476 16.2771 0.393485C16.2571 0.393485 16.2371 0.393485 16.2171 0.393485C16.2171 0.393485 16.2421 0.393485 16.2771 0.393485V0.388485ZM0.599895 34.1176V7.17728C0.599895 5.57756 1.89966 4.27781 3.49938 4.27781H11.8379C11.8779 4.49776 11.9429 4.70773 12.0329 4.9027C12.0529 4.95267 12.0779 4.99767 12.1029 5.04267C12.1729 5.18265 12.2428 5.29261 12.3128 5.39261C12.6028 5.80252 12.9177 5.99249 13.4576 6.56738L13.8176 7.78718C13.9825 8.33709 14.3375 8.837 14.7674 9.21692V10.9966C14.7674 11.4165 14.3924 11.7515 13.9775 11.7515H10.7431C9.30336 11.7515 8.24355 12.6213 8.15855 13.7561L7.84861 21.6347L4.86913 33.7077V36.1323C4.86913 36.4321 5.20407 36.612 5.45904 36.442L6.78381 35.5473C7.01876 35.3923 7.14374 35.1174 7.11373 34.8373L6.72881 31.513L10.1132 23.4644C10.2032 23.2494 10.2532 23.0245 10.2632 22.7895L10.4631 16.1107L12.6978 23.1395C12.7278 23.2994 10.5431 27.1536 10.0932 27.9085C10.0382 27.9986 10.0032 28.0935 9.99325 28.1985L7.93359 43.5859C3.9443 41.9863 0.609892 39.9016 0.609892 34.1075L0.599895 34.1176ZM16.2871 47.2902L15.9372 47.0703C15.6772 46.9052 15.4073 46.7454 15.1373 46.5954C12.0129 37.7568 10.2882 29.7984 10.1882 29.3283C10.3382 29.8083 12.9427 38.1218 16.2771 46.1954C16.3971 46.4853 16.5221 46.7804 16.642 47.0703L16.2871 47.2902ZM22.571 44.3908C22.496 44.4207 22.426 44.4456 22.3511 44.4707C19.9965 42.1912 17.9618 39.7864 16.2771 37.5569C12.5778 32.6479 10.5481 28.5534 10.4382 28.3286C10.5731 28.5384 13.0077 32.308 16.2771 35.6371C18.4267 37.822 21.0763 39.8465 23.5158 40.5114L24.0258 43.8358C23.5458 44.0207 23.0559 44.2059 22.566 44.3857L22.571 44.3908ZM31.9744 34.1176C31.9744 39.9264 28.6249 42.006 24.6306 43.6059L22.566 28.2086C22.556 28.1087 22.521 28.0085 22.466 27.9187C22.0161 27.1638 19.8315 23.3144 19.8615 23.1495L22.0961 16.1207L24.6806 22.2446C24.8906 22.7495 25.5505 22.8745 25.9254 22.4796L31.8092 16.6456L32.1393 16.1557C32.1294 16.2307 32.1243 16.3007 32.1144 16.3757C32.0594 16.7656 31.8245 17.1605 31.8143 17.5554C31.7745 18.2153 32.0944 18.8352 32.1494 19.4751C31.9544 19.5051 31.7745 19.5951 31.6294 19.7401C31.4445 19.925 31.3493 20.17 31.3544 20.4149C31.3544 20.4799 31.3095 20.5399 31.2446 20.5599L27.9451 21.6297C27.9451 21.6297 27.9451 21.6297 27.9349 21.6297C27.9251 21.6297 27.9152 21.6397 27.905 21.6497C27.8951 21.6547 27.8802 21.6597 27.8751 21.6697C27.87 21.6747 27.8652 21.6797 27.8601 21.6847C27.85 21.6997 27.8401 21.7097 27.8302 21.7247C27.82 21.7447 27.815 21.7697 27.8101 21.7897L26.0904 26.4439C26.0604 26.5189 25.9904 26.5689 25.9104 26.5689H24.7956C24.6956 26.5689 24.6057 26.6488 24.6057 26.7488C24.6057 27.3987 24.7856 28.0285 25.1355 28.5635C25.7604 29.5483 26.8251 30.1383 27.99 30.1383C29.8598 30.1383 31.3795 28.6186 31.3745 26.7488C31.3745 26.6488 31.2844 26.5689 31.1845 26.5689H30.0696C29.9897 26.5689 29.9197 26.5189 29.8897 26.4439L28.2599 22.0197C28.2401 21.9697 28.27 21.9147 28.32 21.8997L31.3493 20.9149C31.4145 20.8899 31.4894 20.9149 31.5295 20.9748C31.5543 21.0148 31.5845 21.0498 31.6195 21.0848C31.7195 21.1848 31.8394 21.2548 31.9642 21.3048V34.1176H31.9744ZM29.6097 27.1937C29.6198 27.0938 29.6997 27.0139 29.7997 27.0139H30.4197C30.5295 27.0139 30.6145 27.1138 30.6097 27.2236C30.5046 28.5836 29.3697 29.6584 27.9801 29.6584C27.8101 29.6584 27.6402 29.6434 27.4801 29.6132C28.645 29.3933 29.5349 28.4085 29.6148 27.1988L29.6097 27.1937ZM27.1902 26.4789C27.1552 26.5389 27.0902 26.5689 27.0253 26.5689H26.7252C26.5953 26.5689 26.5003 26.4389 26.5453 26.3139L27.8652 22.7295C27.8751 23.2644 27.835 23.7993 27.7802 24.3293C27.7 25.0941 27.5851 25.804 27.1851 26.4739L27.1902 26.4789ZM29.2748 26.5739H28.975C28.9098 26.5739 28.8449 26.5389 28.8099 26.4839C28.6348 26.1839 28.5199 25.884 28.4299 25.589C28.215 24.7642 28.1701 23.9293 28.1351 23.0895C28.1351 22.9745 28.1351 22.8595 28.1351 22.7445L29.4547 26.3239C29.5047 26.4439 29.4098 26.5789 29.2799 26.5789L29.2748 26.5739ZM36.7434 19.94L38.0632 23.5194C38.1081 23.6394 38.0133 23.7744 37.8834 23.7744H37.5833C37.5184 23.7744 37.4534 23.7394 37.4184 23.6844C37.2383 23.3844 37.1285 23.0845 37.0384 22.7895C36.8236 21.9647 36.7784 21.1298 36.7434 20.29C36.7434 20.175 36.7434 20.06 36.7434 19.94ZM35.6336 23.7744H35.3338C35.2039 23.7744 35.1138 23.6444 35.1539 23.5194L36.4735 19.935C36.4836 20.4649 36.4436 20.9998 36.3885 21.5348C36.3086 22.3046 36.1937 23.0095 35.7937 23.6794C35.7586 23.7394 35.6937 23.7694 35.6288 23.7694L35.6336 23.7744ZM36.6434 26.8388C36.4735 26.8388 36.3086 26.8188 36.1437 26.7888C37.3035 26.5689 38.1931 25.584 38.2781 24.3792C38.2883 24.2793 38.3633 24.1993 38.4681 24.1993H39.0881C39.1982 24.1993 39.2832 24.2943 39.2781 24.4092C39.1731 25.769 38.0384 26.8439 36.6485 26.8439L36.6434 26.8388Z" fill="white"/>
<path d="M46.0217 3.57812H44.022V18.3855H46.0217V3.57812Z" fill="#CD2A3E"/>
<path d="M46.0217 18.3867H44.022V33.1941H46.0217V18.3867Z" fill="white"/>
<path d="M46.0217 33.1914H44.022V47.9986H46.0217V33.1914Z" fill="#2D5E39"/>
</svg>
