<svg width="32" height="32" viewBox="0 0 32 32" fill="none" xmlns="http://www.w3.org/2000/svg">
<circle cx="16" cy="16" r="16" fill="#25887E"/>
<path d="M28.8965 15.8712H28.2552C28.2092 15.8712 28.1689 15.8421 28.1517 15.7983L27.1682 13.0887C27.1682 13.0887 27.1682 13.0828 27.1682 13.0799C27.1682 13.0712 27.1682 13.0653 27.1653 13.0566C27.1653 13.0537 27.1653 13.0507 27.1624 13.0507C27.1624 13.0449 27.1567 13.0391 27.1538 13.0332C27.1509 13.0274 27.1452 13.0216 27.1423 13.0157C27.1394 13.0099 27.1308 13.007 27.125 13.0041C27.1193 13.0012 27.1135 12.9953 27.1078 12.9924C27.102 12.9924 27.0991 12.9924 27.0934 12.9866C27.0848 12.9866 27.0761 12.9807 27.0646 12.9807C27.0618 12.9807 27.0589 12.9807 27.0531 12.9807C27.0474 12.9807 27.0388 12.9807 27.0301 12.9837L25.1322 13.6078C25.0919 13.6224 25.0516 13.6078 25.0286 13.5728C25.0114 13.5495 24.9941 13.5291 24.9769 13.5087C24.8935 13.4212 24.7842 13.3716 24.6692 13.3541C24.6835 13.0916 24.7957 12.8349 24.8388 12.5782C24.859 12.4645 24.8676 12.3507 24.8618 12.234C24.8561 12.0036 24.7209 11.7761 24.6893 11.5457C24.672 11.4174 24.6605 11.289 24.6634 11.1607C24.6634 11.1607 24.6634 11.1607 24.6634 11.1578L25.2357 10.2915V9.48063C25.2357 9.36104 25.1379 9.26188 25.0171 9.26188H24.7411V6.18178C24.7411 5.05592 23.8381 4.14005 22.7281 4.14005H17.94C17.9256 3.74921 17.7703 3.3642 17.4396 3.14544C16.7437 2.68459 16.8817 1.87374 15.3633 2.01666C13.845 1.87374 13.983 2.68459 13.2871 3.14544C12.9564 3.3642 12.8011 3.74921 12.7867 4.14005H8.013C6.90298 4.14005 6 5.05592 6 6.18178V21.8973C6 25.549 8.06764 26.8062 10.5091 27.7891C10.8772 27.9379 11.2568 28.0808 11.6364 28.2237C12.7407 28.6379 13.8852 29.0696 14.886 29.6937C14.9176 29.7112 14.9492 29.7346 14.9809 29.7521L15.3691 30L15.7084 29.7842L15.7544 29.755C16.7782 29.0987 17.9572 28.6554 19.0989 28.2266C19.1104 28.2237 19.1219 28.2179 19.1305 28.2149C19.3807 28.1216 19.628 28.0283 19.8725 27.932C19.9875 27.8883 20.0996 27.8445 20.2118 27.7978C22.6619 26.8149 24.7353 25.5607 24.7353 21.9002V14.4391C24.8216 14.4129 24.9021 14.3662 24.9682 14.2991C25.0775 14.1883 25.1264 14.0483 25.1264 13.9053C25.1264 13.8645 25.1523 13.8324 25.1897 13.8208L26.7742 13.2987C26.8173 13.2841 26.8576 13.3249 26.8432 13.3687L25.9604 15.7954C25.946 15.8392 25.9029 15.8683 25.8568 15.8683H25.2156C25.158 15.8683 25.1063 15.915 25.1063 15.9762C25.1063 16.3554 25.2098 16.7229 25.4111 17.035C25.7677 17.6096 26.3831 17.9509 27.0531 17.9509C28.1287 17.9509 29 17.0642 29 15.9733C29 15.915 28.9511 15.8654 28.8907 15.8654L28.8965 15.8712ZM17.802 4.86049C17.8537 4.74674 17.8911 4.62424 17.9141 4.4959H22.7281C23.6483 4.4959 24.396 5.25425 24.396 6.18762V9.26771H24.0911C24.0193 9.26771 23.9502 9.30271 23.91 9.36688L23.6799 9.71397C23.6569 9.74897 23.6454 9.79272 23.6454 9.83648V10.8836L20.8962 13.147L19.7229 9.81023C19.6079 9.48063 19.0845 8.86811 18.0378 8.86811H16.689C16.4504 8.86811 16.2318 8.66977 16.2318 8.42768V7.38932C16.482 7.16765 16.6862 6.87597 16.7811 6.55513L16.9881 5.84344C17.2987 5.5051 17.4799 5.39718 17.6467 5.158C17.6869 5.09967 17.7272 5.03258 17.7674 4.95383C17.7818 4.92758 17.7933 4.90133 17.8077 4.87216L17.802 4.86049ZM15.3633 12.5374C13.0973 11.3415 12.1138 9.1277 12.0821 9.0577C12.1253 9.10729 13.4855 10.729 15.3633 11.5282C16.2577 11.9103 17.2671 12.1057 18.3052 11.8549L17.8393 13.2578C16.8846 13.1762 16.0621 12.9049 15.3633 12.5374ZM17.2067 15.7167L18.6532 18.4263C17.1865 18.2484 16.1225 17.9101 15.3605 17.5309C13.7558 16.7375 13.4654 15.7633 13.4539 15.7167C13.4941 15.7429 14.3425 16.2475 15.3605 16.2942C15.9586 16.3233 16.6172 16.195 17.2067 15.7137V15.7167ZM17.7243 4.17214C17.7099 4.49882 17.5978 4.83716 17.5604 4.94216C17.5518 4.9655 17.5489 4.97716 17.5489 4.97716C17.5489 4.9655 17.5489 4.95383 17.5489 4.94216C17.5431 4.47548 17.4166 4.23631 17.2469 4.0788C16.9421 3.79879 16.4906 3.78129 16.321 3.19503C16.321 3.19503 16.5999 3.44295 17.1549 3.44295C17.6352 3.44295 17.7416 3.79879 17.7272 4.16922L17.7243 4.17214ZM15.3633 2.22666C15.533 2.21208 16.2519 2.17125 16.4561 2.46C16.9824 3.20961 17.2786 3.25628 17.2786 3.25628C16.1312 3.25628 16.1513 2.25875 15.3633 2.22958C15.3518 2.22958 15.3403 2.22958 15.3288 2.22958C15.3288 2.22958 15.3432 2.22958 15.3633 2.22958V2.22666ZM6.34509 21.906V6.18762C6.34509 5.25425 7.09277 4.4959 8.013 4.4959H12.8097C12.8327 4.62424 12.8701 4.74674 12.9219 4.86049C12.9334 4.88966 12.9477 4.91591 12.9621 4.94216C13.0024 5.02383 13.0426 5.088 13.0829 5.14633C13.2497 5.38551 13.4309 5.49635 13.7414 5.83177L13.9485 6.54346C14.0434 6.8643 14.2476 7.15598 14.4949 7.37765V8.41602C14.4949 8.66102 14.2792 8.85645 14.0405 8.85645H12.1799C11.3517 8.85645 10.7421 9.36396 10.6932 10.0261L10.5149 14.6229L8.80095 21.6668V23.0815C8.80095 23.2565 8.99362 23.3615 9.14029 23.2623L9.90235 22.7402C10.0375 22.6498 10.1094 22.4894 10.0921 22.326L9.87072 20.3864L11.8176 15.6904C11.8693 15.565 11.8981 15.4337 11.9039 15.2966L12.0189 11.3999L13.3043 15.5008C13.3216 15.5941 12.0649 17.843 11.8061 18.2834C11.7744 18.3359 11.7543 18.3913 11.7486 18.4526L10.5638 27.4303C8.26894 26.497 6.35084 25.2807 6.35084 21.9002L6.34509 21.906ZM15.3691 29.5917L15.1678 29.4633C15.0183 29.3671 14.863 29.2737 14.7077 29.1862C12.9104 24.0294 11.9182 19.3859 11.8607 19.1118C11.947 19.3918 13.4452 24.2423 15.3633 28.9529C15.4324 29.1221 15.5043 29.2941 15.5733 29.4633L15.3691 29.5917ZM18.9839 27.8999C18.9407 27.9174 18.9005 27.932 18.8573 27.9466C17.5029 26.6166 16.3325 25.2136 15.3633 23.9127C13.2353 21.0485 12.0678 18.6597 12.0045 18.5284C12.0821 18.6509 13.4826 20.8501 15.3633 22.7927C16.5999 24.0673 18.124 25.2486 19.5274 25.6365L19.8207 27.5762C19.5446 27.6841 19.2628 27.792 18.981 27.897L18.9839 27.8999ZM24.3931 21.906C24.3931 25.2953 22.4664 26.5086 20.1687 27.442L18.981 18.4584C18.9752 18.4001 18.9551 18.3417 18.9235 18.2892C18.6647 17.8488 17.408 15.6029 17.4252 15.5066L18.7107 11.4057L20.1974 14.9787C20.3182 15.2733 20.6978 15.3462 20.9135 15.1158L24.2982 11.7119L24.488 11.4261C24.4822 11.4699 24.4794 11.5107 24.4736 11.5544C24.442 11.782 24.3068 12.0124 24.3011 12.2428C24.2781 12.6278 24.4621 12.9895 24.4937 13.3628C24.3816 13.3803 24.2781 13.4328 24.1947 13.5174C24.0883 13.6253 24.0336 13.7683 24.0365 13.9112C24.0365 13.9491 24.0106 13.9841 23.9732 13.9958L22.0753 14.62C22.0753 14.62 22.0753 14.62 22.0695 14.62C22.0638 14.62 22.058 14.6258 22.0523 14.6316C22.0465 14.6345 22.0379 14.6375 22.035 14.6433C22.0321 14.6462 22.0293 14.6491 22.0264 14.652C22.0206 14.6608 22.0149 14.6666 22.0091 14.6754C22.0034 14.687 22.0005 14.7016 21.9976 14.7133L21.0084 17.4288C20.9911 17.4725 20.9509 17.5017 20.9049 17.5017H20.2636C20.206 17.5017 20.1543 17.5484 20.1543 17.6067C20.1543 17.9859 20.2578 18.3534 20.4591 18.6655C20.8186 19.2401 21.4311 19.5843 22.1012 19.5843C23.1767 19.5843 24.0509 18.6976 24.048 17.6067C24.048 17.5484 23.9962 17.5017 23.9387 17.5017H23.2974C23.2514 17.5017 23.2112 17.4725 23.1939 17.4288L22.2564 14.8475C22.2449 14.8183 22.2622 14.7862 22.2909 14.7775L24.0336 14.2029C24.071 14.1883 24.1142 14.2029 24.1372 14.2379C24.1515 14.2612 24.1688 14.2816 24.1889 14.302C24.2464 14.3604 24.3155 14.4012 24.3873 14.4304V21.906H24.3931ZM23.0329 17.8663C23.0386 17.808 23.0846 17.7613 23.1422 17.7613H23.4987C23.562 17.7613 23.6109 17.8196 23.608 17.8838C23.5476 18.6772 22.8948 19.3043 22.0954 19.3043C21.9976 19.3043 21.8998 19.2955 21.8078 19.278C22.4779 19.1497 22.9897 18.5751 23.0358 17.8692L23.0329 17.8663ZM21.641 17.4492C21.6209 17.4842 21.5835 17.5017 21.5461 17.5017H21.3736C21.2988 17.5017 21.2442 17.4259 21.2701 17.353L22.0293 15.2616C22.035 15.5737 22.012 15.8858 21.9804 16.195C21.9344 16.6413 21.8682 17.0554 21.6382 17.4463L21.641 17.4492ZM22.8402 17.5046H22.6677C22.6303 17.5046 22.5929 17.4842 22.5728 17.4521C22.4721 17.2771 22.406 17.1021 22.3542 16.93C22.2306 16.4488 22.2047 15.9617 22.1845 15.4716C22.1845 15.4046 22.1845 15.3375 22.1845 15.2704L22.9437 17.3588C22.9725 17.4288 22.9179 17.5075 22.8431 17.5075L22.8402 17.5046ZM27.1365 13.6341L27.8957 15.7225C27.9216 15.7925 27.867 15.8712 27.7922 15.8712H27.6197C27.5823 15.8712 27.5449 15.8508 27.5248 15.8187C27.4212 15.6437 27.358 15.4687 27.3062 15.2966C27.1825 14.8154 27.1567 14.3283 27.1365 13.8383C27.1365 13.7712 27.1365 13.7041 27.1365 13.6341ZM26.4981 15.8712H26.3256C26.2508 15.8712 26.199 15.7954 26.2221 15.7225L26.9812 13.6312C26.987 13.9403 26.964 14.2524 26.9324 14.5645C26.8863 15.0137 26.8202 15.425 26.5901 15.8158C26.57 15.8508 26.5326 15.8683 26.4952 15.8683L26.4981 15.8712ZM27.079 17.6592C26.9812 17.6592 26.8863 17.6475 26.7914 17.63C27.4586 17.5017 27.9705 16.9271 28.0194 16.2242C28.0251 16.1658 28.0683 16.1192 28.1287 16.1192H28.4852C28.5485 16.1192 28.5974 16.1746 28.5945 16.2417C28.5341 17.035 27.8813 17.6621 27.0819 17.6621L27.079 17.6592Z" fill="white"/>
</svg>
